<svg xmlns="http://www.w3.org/2000/svg" viewBox="0 0 25 25"><path d="M12.5 1.563c-6.908 0-12.5 5.59-12.5 12.5v2.343a1.562 1.562 0 0 0 .864 1.398l.702.35a5.469 5.469 0 0 0 5.465 5.284h1.172c.647 0 1.172-.525 1.172-1.172v-8.594c0-.647-.525-1.172-1.172-1.172H7.031c-1.53 0-2.913.629-3.906 1.642v-.08c0-5.169 4.206-9.374 9.375-9.374 5.17 0 9.375 4.205 9.375 9.375v.079a5.452 5.452 0 0 0-3.906-1.642h-1.172c-.647 0-1.172.525-1.172 1.172v8.594c0 .647.525 1.172 1.172 1.172h1.172a5.469 5.469 0 0 0 5.465-5.283l.702-.351A1.562 1.562 0 0 0 25 16.406v-2.343c0-6.909-5.59-12.5-12.5-12.5Z"/></svg>