<svg xmlns="http://www.w3.org/2000/svg" viewBox="0 0 25 25"><path d="m6.535 7.333 9.402 7.274V13.9c0-.647.525-1.172 1.172-1.172h1.172c1.53 0 2.914.63 3.906 1.642v-.08c0-5.169-4.205-9.374-9.375-9.374a9.338 9.338 0 0 0-6.277 2.417ZM23.322 20.32l1.754 1.357a.6.6 0 0 1 .107.841l-.804 1.04a.6.6 0 0 1-.841.107L.54 5.875a.6.6 0 0 1-.107-.841l.804-1.04a.6.6 0 0 1 .841-.107l1.949 1.507a12.46 12.46 0 0 1 8.784-3.603c6.91 0 12.5 5.592 12.5 12.5v2.343a1.563 1.563 0 0 1-.863 1.398l-.703.351a5.446 5.446 0 0 1-.424 1.936ZM.312 14.291c0-1.694.336-3.308.945-4.78l2.598 2.009a9.344 9.344 0 0 0-.418 2.77v.08a5.47 5.47 0 0 1 2.293-1.4l3.957 3.061v6.463c0 .647-.524 1.172-1.172 1.172H7.344a5.469 5.469 0 0 1-5.466-5.283l-.702-.35a1.563 1.563 0 0 1-.864-1.399v-2.343Zm15.625 8.203v-1.628l3.47 2.684c-.363.076-.74.116-1.126.116H17.11a1.172 1.172 0 0 1-1.172-1.172Z" /></svg>