<svg xmlns="http://www.w3.org/2000/svg" viewBox="0 0 25 25"><path d="m25.68 20.42-6.163-4.763c.491-.938.78-1.997.78-3.13V10.65a.625.625 0 0 0-.625-.625h-.625a.625.625 0 0 0-.625.625v1.875c0 .7-.155 1.36-.419 1.961l-1.037-.801c.121-.367.206-.751.206-1.16v-6.25a3.75 3.75 0 1 0-7.5 0v1.772l-6.974-5.39a.625.625 0 0 0-.877.11l-.767.987a.625.625 0 0 0 .11.877l22.982 17.763a.625.625 0 0 0 .878-.11l.767-.987a.625.625 0 0 0-.11-.877Zm-9.133.231H14.36v-1.319a6.797 6.797 0 0 0 1.315-.324l-1.958-1.513c-.262.015-.523.034-.795.008-2.181-.213-3.857-1.9-4.342-3.979l-2.033-1.571v.267c0 3.502 2.499 6.623 5.938 7.097v1.334h-2.188a.625.625 0 0 0-.625.625v.625c0 .346.28.625.625.625h6.25c.345 0 .625-.28.625-.625v-.625a.625.625 0 0 0-.625-.625Z"/></svg>