<svg xmlns="http://www.w3.org/2000/svg" viewBox="0 0 25 25"><path d="M12.564 2.5c.469 0 .865.348.928.813l1.59 11.827 1.492-9.289a.937.937 0 0 1 1.853.011l1.154 7.775.813-4.01a.937.937 0 0 1 1.81-.102l1.041 3.225h.817a.937.937 0 1 1 0 1.875h-1.5a.937.937 0 0 1-.892-.65l-.15-.466-1.164 5.74a.937.937 0 0 1-1.846-.049l-1.047-7.06-1.537 9.571a.937.937 0 0 1-1.855-.023l-1.52-11.304-1.56 11.307a.937.937 0 0 1-1.854.02l-1.522-9.476-1 6.96a.937.937 0 0 1-1.846.054l-1.204-5.937-.244.689a.937.937 0 0 1-.884.624h-1.5a.937.937 0 1 1 0-1.875h.838L2.93 9.499a.937.937 0 0 1 1.802.127l.799 3.938 1.105-7.697a.938.938 0 0 1 1.853-.016l1.504 9.362 1.642-11.904a.938.938 0 0 1 .93-.809Z" /></svg>