<svg xmlns="http://www.w3.org/2000/svg" viewBox="0 0 25 25"><path fill-rule="evenodd" d="M3 2.95C3 1.32 4.336 0 5.983 0h13.034C20.663 0 22 1.32 22 2.95v19.1c0 1.63-1.336 2.95-2.983 2.95H5.982C4.336 25 3 23.68 3 22.05V2.95ZM14.934 4.97c0 1.286-1.055 2.33-2.355 2.33-1.301 0-2.356-1.044-2.356-2.33s1.055-2.33 2.355-2.33c1.301 0 2.356 1.044 2.356 2.33Zm3.14 10.87c0 3.001-2.46 5.434-5.496 5.434-3.035 0-5.495-2.433-5.495-5.434 0-3.002 2.46-5.435 5.495-5.435 3.036 0 5.496 2.433 5.496 5.434Zm-2.355 0c0 1.715-1.406 3.105-3.14 3.105-1.735 0-3.141-1.39-3.141-3.105 0-1.716 1.406-3.106 3.14-3.106 1.735 0 3.141 1.39 3.141 3.105Z" clip-rule="evenodd"/></svg>