<svg xmlns="http://www.w3.org/2000/svg" viewBox="0 0 25 25"><path d="M14.633 23.856C14.38 24.784 13.426 25 12.5 25c-.926 0-1.88-.216-2.133-1.144-.375-1.389-1.01-4.867-1.01-6.485 0-1.717 1.53-2.137 3.143-2.137 1.614 0 3.143.42 3.143 2.137 0 1.608-.632 5.087-1.01 6.485Zm-5.43-9.766a4.66 4.66 0 0 1-1.413-3.545c.1-2.428 2.082-4.393 4.524-4.487 2.684-.103 4.9 2.038 4.9 4.684a4.66 4.66 0 0 1-1.417 3.347.293.293 0 0 0 .03.449c.458.33.809.75 1.043 1.239.086.178.32.227.464.092a6.994 6.994 0 0 0 2.235-5.301c-.09-3.721-3.123-6.749-6.865-6.854C8.712 3.6 5.43 6.798 5.43 10.742c0 2.02.86 3.843 2.236 5.127a.294.294 0 0 0 .465-.092c.234-.49.585-.909 1.042-1.239a.292.292 0 0 0 .031-.448ZM12.5 0c-6.08 0-11 4.892-11 10.938 0 4.394 2.583 8.088 6.175 9.834a.294.294 0 0 0 .419-.308 30.682 30.682 0 0 1-.266-2.165.294.294 0 0 0-.131-.22c-2.328-1.554-3.858-4.2-3.84-7.195.03-4.7 3.894-8.528 8.62-8.54 4.776-.013 8.666 3.847 8.666 8.594 0 3.023-1.58 5.687-3.96 7.22-.05.685-.151 1.493-.277 2.306a.294.294 0 0 0 .42.308c3.582-1.742 6.174-5.43 6.174-9.834C23.5 4.893 18.58 0 12.5 0Zm0 7.813a3.134 3.134 0 0 0-3.143 3.125 3.134 3.134 0 0 0 3.143 3.124c1.736 0 3.143-1.399 3.143-3.124A3.134 3.134 0 0 0 12.5 7.812Z"/></svg>